<svg xmlns="http://www.w3.org/2000/svg" xml:space="preserve" id="Layer_1" x="0" y="0" viewBox="0 0 197.6 442.7"><style>.st0{fill:#221e1b;stroke:#0c0c0c;stroke-miterlimit:10}.st5,.st6,.st8{fill:#d17b44}.st6,.st8{stroke:#000;stroke-miterlimit:10}.st8{fill:none}.st14{fill:#fff}.st17,.st18{fill:none;stroke:#020202;stroke-width:2;stroke-linejoin:round;stroke-miterlimit:10}.st18{stroke-linecap:round}</style><path d="M138.8 20.4S128.8 3.9 92.4 10 53.5 53.9 53.5 53.9s-6 52.2-4.8 74.5 4.8 45.5 4.8 45.5l27.9 4.6 51.5 12.7 11.1-6.9 19.7-4.1 3.9-42s-.6-81.6-6.4-94.1-9.9-21.9-22.4-23.7z" class="st0"/><path d="m91.6 142.8 4.5 4.4s3.7 4.1 8.2 4 13.9-3.2 14.9-4.5.4-3.9.4-3.9l2.5-1.3 2.6 11.2 1.1 107.5-10.6 4.1-26.1-1.7-.7-118z" style="fill:#f9f9f9"/><path d="m119.6 398.9-1.7 6.5s-2.5 9-1.6 11.1c.9 2.2 6.2 4.9 7.1 5.2s21.4 2 26.1.7c4.6-1.3 9.3-9.4 5.5-13s-11-12.1-11-12.1l-15-3.6zM70 401.1s-7.8 5.4-8.4 10-.7 8.5 1.3 10.1 21 2.9 27.6 1.4c6.7-1.4 9.8-3 9.8-4.8s-.3-13.5-2.3-15.7c-2-2.1-5.6-4.8-5.6-4.8s-20.8-.6-22.4 3.8z" class="st0"/><path d="M94.9 260.2h21.6l2.1 16.8H97.4z" style="fill:#2a3758"/><path d="m66.6 265.4 1.9 135.9s.6.7 4.2 0 14.6-2.1 19.9.3 7.5-2.2 7.5-2.2l4-122v-17.1l-36.6-.9zm81.2 0-1.9 135.9s-.6.7-4.2 0-14.6-2.1-19.9.3-7.5-2.2-7.5-2.2l-4-122v-17.1l36.6-.9z" style="stroke-miterlimit:10;fill:#2a3758;stroke:#020202"/><path d="M99.5 277h14.7m-14.7-16.8h14.7" style="stroke-miterlimit:10;stroke:#020202;fill:none"/><path d="m143.7 174.7 2.3 50.6 6.4 39.6s-9.8 3.1-15.1 2.9c-5.2-.2-14.5 0-14.5 0l-1.8-92.3.4-15.2z" class="st5"/><path d="M24.4 186.3s10.2 1.4 13.9-15.8l12 9.5s9.1-23.8 19.7-28.6 16.8-6 16.8-6l4.8-4.4v126.8l-30-2.9s2.9-35.5 3.4-38.8 2.2-26.4 2.2-26.4-9.7 13.7-12.7 14.1-7.5 1.2-14.3-5-17.4-20.1-17.4-20.1z" class="st6"/><path d="M24.8 155.2s-.8-8.3 1.4-12.3 6.2-1.4 6.2 0-.2 10.1 1.2 12.3 4.4 7.2 4.6 11.3-2.4 13.8-5.4 16.1-8.1 2.6-8.1 2.6-11.3.5-13-2.6c-1.7-3-1.9-10.6-1.9-14.2s2.7-12.4 4.4-12.5c1.8-.3 10.6-.7 10.6-.7zm120.3 79.2s-10.8 4.4-10.6 7.7 0 4.8 2 5c0 0 .5 4.6 4.4 4.2 0 0-.3 3.1 2.4 2.9 2.8-.1.9 0 .9 0s.4 2.9 2.9 3 9.2-4.1 10.2-6.9c1.1-2.9 4.6-6.1 4.6-6.1s-10.7-12-14-11.4c-3.5.7-2.8 1.6-2.8 1.6z" style="stroke:#000;stroke-miterlimit:10;fill:#d9a97b"/><path d="m141.6 187.9-15.8-24.7 4-9.6 5.4-6.6s4.4.8 10 5.4c1.8 1.4 2.8 3.7 5.1 5.7 5.7 5.1 24.7 28.3 26.6 31.7 1.9 3.5 5.4 10 5 15.4s-4.8 16.6-4.8 16.6l-15.4 24.5s-3.7-6-5.2-7.1-8.9-6.2-10.4-6 0-4.8 0-4.8l11.4-23.2-12.6-17 11.6 16.2" class="st5"/><path d="M92.9 137.3s-12.3 4.5-12.3 8v10.6H85s-6.2 4.3-4.5 6.4c1.7 2 12.3 11.7 12.3 11.7v-30l28.4-.4-.7 31.1 14-12s-1.7-7.5-3.6-7.5l4.9-.4s0-8.1-3.8-11.9-9.7-6.5-9.7-6.5l-12.9-3.9z" class="st6"/><path d="M57.3 187.9 47 177.3m87.5-30.5s5.2.9 8.5 3.5 29.7 32.4 29.7 32.4 8.8 15.3 9.3 19c.3 2.4-.9 10.8-4.4 19-4.1 9.8-11.5 20.9-15.3 25.7 0 0-10.8-14.1-15.4-13.5 0 0-.8-3.1-.8-4.4 0-1.4 11.2-22.6 11.2-22.6s3.5-3.5 6.2-3.9m-19.4-26.5 2 52m-1-36.3 12.1 14.6m-36.7-31.1 1.4 93.1s27.4-.2 30.5-2.9V256" class="st8"/><path d="M136.5 247.1s5.8-5.5 6.9-6.1m-2.8 11 5.4-5.7m-1.9 8 4-3.2M17.5 163.7s11.6 1 12 2.7-1.2 6.6-3.1 6.4-8.9-.8-8.9-.8" class="st8"/><path d="M19.8 157s4.1-.1 5.1.2 4 2.3 4.3 3.7-.7 4.7-.7 4.7m-1.5 7.2s2.7 3.9.5 5.2c-2.2 1.4-10.4.8-10.4.8m10 .1s.4 5-2.3 5.6-2.9.6-2.9.6" class="st8"/><path d="M94.6 145.6s.5-7.5 0-9.8 23.5-.7 25.1-1.4v12.2c-.1-.1-14.8 11.4-25.1-1z" style="fill:#dba774;stroke:#000;stroke-miterlimit:10"/><path d="M71.2 91.8c0 4.7.3 10.3-2.1 12.6-1.4 1.4-5 .7-6.8.7-4.9 0-8.9-6-8.9-13.4s4.1-14.1 9-14.1 8.8 6.8 8.8 14.2z" style="fill:#edbf94;stroke:#020202;stroke-linejoin:round;stroke-miterlimit:10"/><path d="M145.9 92.3c0 4.5-.3 9.9 2.1 12.2 1.4 1.3 5 .7 6.8.7 4.9 0 8.9-5.8 8.9-12.9s-4-12.9-8.9-12.9-8.9 5.8-8.9 12.9z" style="fill:#edbf94;stroke:#020202;stroke-miterlimit:10"/><path d="M150.2 89.4c-1 21.6-17.5 45.2-41.7 46.5-23 1.2-41.7-20.8-41.7-46.5 0-4.1-2.6-7.5-3.3-11-.9-4.4 0-9 .8-15.7C66 48 93.8 42.9 108.6 42.9c6.1 0 15.7 3.6 20.3 0 11.5-9 14.1 3.7 18.4 12.1 1.5 2.8.2 14 .1 17.9-.2 5.5 3.1 11.5 2.8 16.5" style="fill:#edbf94"/><path d="M81.4 64.3s5-8.6 14.7-5.6m25.7.2s9.2-3.8 15 4.5" style="stroke-miterlimit:10;fill:none;stroke:#020202;stroke-width:2;stroke-linecap:round"/><ellipse cx="89.9" cy="82.1" class="st14" rx="11" ry="11.6"/><ellipse cx="127.7" cy="83.5" class="st14" rx="11" ry="11.6"/><circle cx="90.6" cy="87.6" r="6.2"/><circle cx="123.8" cy="87.6" r="6.2"/><ellipse cx="89.9" cy="82.4" class="st8" rx="11" ry="11.9"/><ellipse cx="127.7" cy="83.5" class="st8" rx="11" ry="11.9"/><path d="M107.4 91.9s-4.8-.8-4.1 4.9c.3 2.7 2.3 4.8 7.7 4.6" style="fill:none;stroke:#000;stroke-linecap:round;stroke-miterlimit:10"/><path d="M97.2 110.4s8.5 2.5 22.8 0c0 0-2.1 8.1-7.5 8.6-5.9.6-9.5.1-11.5-1.7-2-1.9-2.9-2.1-3.8-6.9" style="fill:#fcfcfc"/><path d="M57.3 86.3s6.8-.8 8.4 4.6m84.9.1s1.3-3.2 4.6-4.7c3.4-1.5 3.7 0 3.7 0" class="st8"/><path d="M147.8 63.6s-2 11.4 2 18.5" class="st17"/><path d="M153.3 78.4s1-4.4.7-7.9" class="st18"/><path d="M65.2 64.9s.5-.2 6.1-3.1c0 0 13.3-5.7 14.8-11.4l10.1 4s10.8 3 13.9 2 15.7-3.3 19.4-7.2S135 43 135 43s-.5 5-.3 6c.1 1 2.3 7.9 5.3 10.2s5.3 4.4 8.6 4.9c3.3.4 5.6.4 5.6.4l5.8-9.2-12.2-17.6-14.7-6.8-37-4.1L72.9 36 61 52.1l-2.7 11.6s2.9 14.4 5.6 14.8c0 0 0-.7.9-11" style="fill:#24201e"/><path d="M63.5 64.9S82.8 58.4 86 50.3c0 0 31.5 17.6 48.9-7.4 0 0-4.8 16.5 16.8 22" class="st18"/><path d="M63.5 78.4s1.5-10.1 1.2-13.6" class="st17"/><path d="M66.6 99.5s7.6 32.6 36.7 36.3 45.3-29.4 46-36.3" class="st18"/></svg>