<svg xmlns="http://www.w3.org/2000/svg" xml:space="preserve" id="Layer_1" x="0" y="0" viewBox="0 0 252.3 442.7"><style>.st3{fill:#2c385a;stroke:#050505;stroke-width:2;stroke-miterlimit:10}.st4{fill:#24201f}.st6{stroke:#020202;stroke-width:2;stroke-miterlimit:10}.st6,.st8{fill:#d37c45}.st10{fill:none;stroke-width:2;stroke-linecap:round}.st10,.st12,.st13{stroke:#020202;stroke-miterlimit:10}.st12{fill:#edbf94;stroke-width:2}.st13{fill:none}.st14{fill:#fff}.st17,.st18{fill:none;stroke:#000;stroke-miterlimit:10}.st18{stroke-width:2}.st19{fill:#d9a97b}</style><path d="M97.1 403.6s-2 6-1.8 10.2c.2 4.3-1.2 7.1 2.6 7.7 3.7.5 37.5.9 37.5.9s5.5-2 5.5-4.9.2-8.9-2-10.3-6.6-5-11.1-4.8c-4.5.3-12.7 1.1-15.8 1.8-3.2.8-14.9-.6-14.9-.6" style="fill:#242428"/><path d="M56.3 404.9s-3.7 3.4-3.7 6.1-.2 7.6 0 8.7 1.2 2.9 11.4 3.4 24 0 24 0 5.2-3.1 4.3-7.1-2.6-9.8-5.5-11-11.5-4.1-15-2.4c-3.4 1.5-15.1 3.1-15.5 2.3z" style="fill:#242528;stroke:#000;stroke-width:2;stroke-miterlimit:10"/><path d="M95.3 263.9h11.4v16.3l-7.1 4.7-4.3-5.9z" style="fill:#2c385a"/><path d="m103.8 264.9 15.9-1h8.4l1 27.7-1 62.8-1.3 48s-3.1-.3-9.2.7-20.6 2-22.4.5l.4-45.5.8-35.2-.1-41.7s4.4.8 6.1-1.6c1.8-2.4 1.4-14.7 1.4-14.7z" class="st3"/><path d="m56.1 271.3-1 132.6 7.7 1s12.2-2.4 19.9-.5h4.9l5-122.9s4.6.2 5.3-1 .8-15.4.8-15.4L79.6 264l-23.5 1z" class="st3"/><path d="M38.1 198.3s-10.4-18-9.5-46.6c.4-14.1-.3-31.9.4-47.7.8-16.1 3.2-30.1 5.3-35.7 2.6-6.9 2-7.2 2-7.2s-5.3-8-3.1-15.8S37.1 28.6 47.6 22s15.6-10 31.3-10.6 27.4.1 35.1 2.9 17.8 9.3 20 14.9 3.5 12.1 2.1 14.6-2.9 2.4-2.9 2.4 3 6.9 2.2 11.7.4 58.8.4 58.8.9 50.8-.4 52c-1.3 1.3-18.8.8-18.8.8l-68.9 33.4z" class="st4"/><path d="M76.8 142.4s15.5 13.4 28.3 2.3l11.6 14.7 5.8 96.3-1.2 6.1s-20 6.1-33.2 1.5c-13.1-4.6-7-24.8-7-24.8l2.8-49.6v-26.8z" style="fill:#fff;stroke:#020202;stroke-width:2;stroke-miterlimit:10"/><path d="M115.4 145.7s8.5 16.1 9.8 21.6 11.2 97.9 7.2 96.9l.1 4.7s-6.9 3.1-16.5 2.3c0 0-.9-43.1-1.4-48.3-.5-5.1-3.6-51.6-6-61s-5.2-19.5-5.2-19.5z" class="st6"/><path d="M66.3 145.9s-11.7 2.9-14.8 11.2-14.8 41-15.7 52.4-1.2 11.4 2 17.5 11.4 19.6 11.4 19.6l-1.2 22s14.8 3.7 26.7 3.7h13.1V170L75 144.6z" style="fill:#cd753f;stroke:#000;stroke-width:2;stroke-miterlimit:10"/><path d="m116.2 145.4 1.4-.3 9 2.4 1.8 2.3-.5 3.2-9 .7-3.1-3c-.1 0 2.6-2 .4-5.3" class="st8"/><path d="M79.9 133.7s-11.8 3-11.8 11.9 1.3 7.5 1.3 7.5l4.3-1s-3.1 4.8-2 6.6 14.5 10.2 14.5 10.2l-6.5-23.5 23-4.2s7 22.6 6.9 24.8c0 0 6.6-6.7 7-9.3s-3-5.4-3-5.4 5.4-.4 3.3-4.9-8.1-10.3-8.1-10.3-27.1-5.9-28.9-2.4z" style="fill:#d17b44;stroke:#000;stroke-miterlimit:10"/><path d="M116.6 144.8s15 4.3 20.4 3" class="st10"/><path d="M79.9 130.5v14s15.3 7.9 23.2 1.1l-2.1-12.9z" style="fill:#d8aa7a;stroke:#000;stroke-width:2;stroke-miterlimit:10"/><path d="M60.2 93.4c0 4.5.4 10-2.1 12.6-1.8 1.9-5.9 1.4-8.3 1.4-5.7 0-10.4-6.2-10.4-13.9s4.7-12.3 10.4-12.3 10.4 4.5 10.4 12.2z" class="st12"/><path d="M145.3 92c-2 23.5-12.3 39.3-39.3 45.4-11.9 2.7-29.3-2.6-37.3-11.3s-10.6-22.5-10.6-35.7c0-26.5 19.7-48 44.1-48 7 0 18.3-.5 23.8 3.2 10.8 6.9 20.9 27.6 19.3 46.4z" class="st12"/><path d="M44.9 90.1s7.3-5.4 11.2 6.3" class="st13"/><path d="M52.4 92.6s-5.1 2.1-2.5 5.5" class="st13"/><path d="M82.7 63.5s4.4-7.6 12.9-4.9m26.1-1.6s6.7-3.3 10.8 3.4" class="st10"/><ellipse cx="95.3" cy="82.6" class="st14" rx="10.9" ry="12"/><ellipse cx="102.8" cy="80.4" rx="3.8" ry="5.4"/><path d="M115.2 89.6s6.1-.2 6.1 4.9c0 1.5-1.3 5.2-6.1 5.1" style="fill:none;stroke:#000;stroke-linecap:round;stroke-miterlimit:10"/><path d="M105.1 113.1s3.9 6.5 11.6 2.4" style="fill:none;stroke:#8e6a51;stroke-width:2;stroke-linecap:round;stroke-miterlimit:10"/><ellipse cx="95.3" cy="82.6" class="st17" rx="11.4" ry="12.5"/><ellipse cx="127.7" cy="80.7" class="st14" rx="10.1" ry="12.3"/><ellipse cx="134.6" cy="78.4" rx="3.5" ry="5.6"/><ellipse cx="127.7" cy="80.7" class="st17" rx="10.5" ry="12.8"/><path d="M56.1 83.3s6.8-6.3 8.3-8.4 4.1-8.9 4.4-10.7.3-2.1.3-2.1 12.8-6.5 14.3-8.1 2.2-2.1 2.2-2.1 5.2 1.1 7.1.8c1.9-.2 11.4-1.2 14-2.8s5.3-3.2 5.3-3.2l1.4 1s5.4.1 7.1-1 4.3-3 4.3-3l2.3 2.5 6.6-1.2-2-13.7-22.8-4.9-22.5-.5-22 4.8-15.2 7.6-5 5.8-1.5 16.5.7 5.8z" class="st4"/><path d="M127.1 46.8c4.6-2.2 9.7 1.4 9.6-6.1S132.5 8.5 84 11 33 45.6 33 48.5s-.1 12.8 8.4 16.5" class="st18"/><path d="M37.7 199.8s-9.6-21.6-9.2-47.3-1.7-80.7 8.4-91.7M133.5 46s2.4 4.7 1.7 9.5M57.4 83.2s12.5-11.9 11.8-21.3" class="st18"/><path d="M52.4 65.8s18.2.4 34-14.6m-.9.9c25.6 4.4 33.5-13.9 33.5-13.9" class="st18"/><path d="M127.1 40.2s-4.2 9.4-16.1 7.2" class="st18"/><path d="M135.9 120.6s1 46.3-.4 48.3" class="st12"/><path d="M55.1 251.1s3.7-12.4 16.4-15.1" class="st10"/><path d="M69.9 173.7s-8.9 37.8-7.3 41.9c1.5 4.1 12.1 20.4 12.1 20.4s-.4 7.4-1.4 7.6-14.3 12.3-15.1 12.5c-.9.2-10.3-11.7-10.3-11.7" class="st10"/><path d="m64.8 240.8 8.9 3.6s2.6-1.4 2.4 0-5.6 8.5-5.6 8.5l-7.2 5.1s-6-7.1-6.1-8.6 3-7.5 7.6-8.6" class="st19"/><path d="M60.4 259.5s12.3-4.8 19.1-18.7m-24.4-27.5s6.4 0 7.4 2.2" class="st10"/><path d="M123.7 168.8s5.3 13.9 5.5 36.5c.3 22.6 3.4 63.6 3.4 63.6" style="fill:none;stroke:#020202;stroke-width:2;stroke-miterlimit:10"/><path d="m126.8 148.7 36.3 2c2.7 0 7.7-4.3 7.7-4.3l34-26.9c.5-.5 5.8-4.7 6.9-4.5 2.1.3-1.1 4.4 3.1 9.1 1 1.2 5.1 6.9 4 8l-42.5 35.4c-2.9 2.9-10.6 3.6-17.7 3.9l-32.8-1.5z" class="st6"/><path d="m117.4 152.4 2.8-4.3 2.1-.2 2-.2 2.4.5s1.7.5 2.4.7c2.1.5 10.1 1.4 10.1 1.4l-6.7 17.8-11.4 1.7z" class="st8"/><path d="m210.5 118.4 1.7-6s2-4.3 4.5-5.3c.3-.1 1.2 0 1.6-.3.6-.4 1.2-1.2 1.7-1.8 1.8-2.2 4.2-4.2 4.2-4.2l7.1-7.5 2.5-1.5s3-1.9 3.9-.9c.9.9-.3 4.8-1 6-.2.4-.3 1.5-1.4 2.7-2 2.3-5.3 5.2-5.3 5.2l-.8.9s3.2.1 4.2.3c.6.2 1.7.8 1.9 1.6.1.5-.1 1.1-.1 1.3-.1.7-.9 2.1-.9 2.1s.5-1.3 1.5-.7c.4.3 1 1.3 1.6 2.5.2.3.1.8 0 1.2-.4 1.2-.6 1.7-.6 1.7s.4-.1.7.8.1 4.5-1 5.3c-1 .8-3.1 2.1-5.5 2.2 0 0-.2 1.9-1.4 3.2-.8.9-2.8 1.4-3.5 1.6-1.8.4-5.7 1.6-6.5 1.4s-2.7.4-3.7-1.5c-.6-1.2-3.1-3.4-4.4-5.8-1-1.7-1.3-3.5-1-4.5" class="st19"/><path d="M235.3 110s3.4 3.2 1.7 5.8-6.1 5.2-8.2 4.7-4.5-2.6-4.3-4.5l1.6.3c4 .6 9.1-5.3 9.5-7.9s-5.5-3.2-5.5-3.2" class="st17"/><path d="M237.2 115.4s1.6 4.4-.7 6.5-7.1 2.7-7.7 1.5-1.1-2.4.2-3" class="st17"/><path d="M217.5 107.3s5.5 1.4 8.8 1.3c2.3-.1 2.7 2.8 2.9 3.1 0 0 0 1.8-.8 2.9s-1.9 1.1-4 .4-3.3-.4-3.3-.4 3.4 1.7 1.9 3.8-3.4 4-4.5 3.5" style="fill:none;stroke:#000;stroke-linejoin:round;stroke-miterlimit:10"/><path d="M231.3 124s-.5 3.7-4.3 5-9.3 2.2-11-.5c-1.8-2.7-6.1-4.6-5.4-9.7 0 0 1.3-5.1 2.6-7.1s.8-4.3 5.1-4.3L231.6 93s4.3-3.6 6.3-2.2c1.9 1.4-1.4 8-2.4 8.8s-8.3 8.9-8.3 8.9m-25 12.4s1.2 12 10.6 16" class="st17"/><path d="M117.9 167.3s2.7 2.1 8.2 3.4m-3.6-7.1s.4 2.6 2.9 6.3" style="fill:#d37c45;stroke:#020202;stroke-width:2;stroke-linecap:round;stroke-linejoin:round;stroke-miterlimit:10"/></svg>