<svg xmlns="http://www.w3.org/2000/svg" xml:space="preserve" id="Layer_1" x="0" y="0" viewBox="0 0 252.3 442.7"><style>.st3{fill:#2c385a;stroke:#050505;stroke-width:2;stroke-miterlimit:10}.st4{fill:#24201f}.st6{stroke:#020202;stroke-width:2;stroke-miterlimit:10}.st6,.st8{fill:#d37c45}.st10{fill:none;stroke-width:2;stroke-linecap:round}.st10,.st12,.st13{stroke:#020202;stroke-miterlimit:10}.st12{fill:#edbf94;stroke-width:2}.st13{fill:none}.st14{fill:#fff}.st17,.st18{fill:none;stroke:#000;stroke-miterlimit:10}.st18{stroke-width:2}</style><path d="M78.4 413.8s-2 6-1.8 10.2-1.2 7.1 2.6 7.7 37.5.9 37.5.9 5.5-2 5.5-4.9c0-2.8.2-8.9-2-10.3s-6.6-5-11.1-4.8c-4.5.3-12.7 1.1-15.8 1.8-3.2.7-14.9-.6-14.9-.6" style="fill:#242428"/><path d="M37.6 415s-3.7 3.4-3.7 6.1-.2 7.6 0 8.7 1.2 2.9 11.4 3.4 24 0 24 0 5.2-3.1 4.3-7.1-2.6-9.8-5.5-11-11.5-4.1-15-2.4c-3.4 1.5-15.1 3.2-15.5 2.3z" style="fill:#242528;stroke:#000;stroke-width:2;stroke-miterlimit:10"/><path d="M76.6 274H88v16.3l-7.1 4.8-4.3-6z" style="fill:#2c385a"/><path d="m85.2 275 15.9-1h8.4l1 27.7-1 62.8-1.3 48s-3.1-.3-9.2.7-20.6 2-22.4.5l.4-45.5.8-35.2-.1-41.7s4.4.8 6.1-1.6 1.4-14.7 1.4-14.7z" class="st3"/><path d="m37.4 281.5-1 132.6 7.7 1s12.2-2.4 19.9-.5h4.9l5-122.9s4.6.2 5.3-1 .8-15.4.8-15.4L60.9 274l-23.5 1.1z" class="st3"/><path d="M19.4 208.5s-10.4-18-9.5-46.6c.4-14.1-.3-31.9.4-47.7.8-16.1 3.2-30.1 5.3-35.7 2.6-6.9 2-7.2 2-7.2s-5.3-8-3.1-15.8 4-16.6 14.5-23.3 15.6-10 31.3-10.6 27.4.1 35.1 2.9 17.8 9.3 20 14.9 3.5 12.1 2.1 14.6-2.9 2.4-2.9 2.4 3 6.9 2.2 11.7c-.8 4.7.4 58.8.4 58.8s.9 50.8-.4 52c-1.3 1.3-18.8.8-18.8.8l-68.9 33.4z" class="st4"/><path d="M58.1 152.5s15.5 13.4 28.3 2.3L98 169.5l5.8 96.3-1.2 6.1s-20 6.1-33.2 1.5-7-24.8-7-24.8l2.8-49.6v-26.8z" style="fill:#fff;stroke:#020202;stroke-width:2;stroke-miterlimit:10"/><path d="M96.7 155.8s8.5 16.1 9.8 21.6 11.2 97.9 7.2 96.9l.1 4.7s-6.9 3.1-16.5 2.3c0 0-.9-43.1-1.4-48.3s-3.6-51.6-6-61-5.2-19.5-5.2-19.5z" class="st6"/><path d="M47.6 156.1s-11.7 2.9-14.8 11.2-14.8 41-15.7 52.4-1.2 11.4 2 17.5 11.4 19.6 11.4 19.6l-1.2 22s14.8 3.7 26.7 3.7h13.1V180.2l-12.8-25.4z" style="fill:#cd753f;stroke:#000;stroke-width:2;stroke-miterlimit:10"/><path d="m97.5 155.5 1.4-.3 9 2.4 1.8 2.3-.5 3.2-9 .7-3.1-3c-.1.1 2.6-2 .4-5.3" class="st8"/><path d="M61.2 143.9s-11.8 3-11.8 11.9 1.3 7.5 1.3 7.5l4.3-1s-3.1 4.8-2 6.6c1 1.7 14.4 10.1 14.4 10.1l-7.6-28.3 24.7.9s6.4 22.2 6.2 24.4c0 0 6.6-6.7 7-9.3s-3-5.4-3-5.4 5.4-.4 3.3-4.9-8.1-10.3-8.1-10.3-26.9-5.7-28.7-2.2z" style="fill:#d17b44;stroke:#000;stroke-miterlimit:10"/><path d="M97.9 155s15 4.3 20.4 3" class="st10"/><path d="M61.2 140.6v14s14 7.8 21.9 1v-12.8z" style="fill:#d8aa7a;stroke:#000;stroke-width:2;stroke-miterlimit:10"/><path d="M41.5 103.5c0 4.5.4 10-2.1 12.6-1.8 1.9-5.9 1.4-8.3 1.4-5.7 0-10.4-6.2-10.4-13.9s4.7-12.3 10.4-12.3 10.4 4.5 10.4 12.2z" class="st12"/><path d="M126.6 102.1c-2 23.5-12.3 39.3-39.3 45.4-11.9 2.7-29.3-2.6-37.3-11.3s-10.6-22.5-10.6-35.7c0-26.5 19.7-48 44.1-48 7 0 18.3-.5 23.8 3.2 10.8 6.9 20.9 27.6 19.3 46.4z" class="st12"/><path d="M26.2 100.3s7.3-5.4 11.2 6.3" class="st13"/><path d="M33.7 102.8s-5.1 2.1-2.5 5.5" class="st13"/><path d="M64 73.7s4.4-7.6 12.9-4.9m26.1-1.7s6.7-3.3 10.8 3.4" class="st10"/><ellipse cx="76.6" cy="92.7" class="st14" rx="10.9" ry="12"/><ellipse cx="84.1" cy="90.5" rx="3.8" ry="5.4"/><path d="M96.5 99.7s6.1-.2 6.1 4.9c0 1.5-1.3 5.2-6.1 5.1" style="fill:none;stroke:#000;stroke-linecap:round;stroke-miterlimit:10"/><path d="M86.4 123.2s3.9 6.5 11.6 2.4" style="fill:none;stroke:#8e6a51;stroke-width:2;stroke-linecap:round;stroke-miterlimit:10"/><ellipse cx="76.6" cy="92.7" class="st17" rx="11.4" ry="12.5"/><ellipse cx="109" cy="90.8" class="st14" rx="10.1" ry="12.3"/><ellipse cx="115.9" cy="88.6" rx="3.5" ry="5.6"/><ellipse cx="109" cy="90.8" class="st17" rx="10.5" ry="12.8"/><path d="M37.4 93.5s6.8-6.3 8.3-8.4 4.1-8.9 4.4-10.7.3-2.1.3-2.1 12.8-6.5 14.3-8.1 2.2-2.1 2.2-2.1 5.2 1.1 7.1.8c1.9-.2 11.4-1.2 14-2.8s5.3-3.2 5.3-3.2l1.4 1s5.4.1 7.1-1 4.3-3 4.3-3l2.3 2.5 6.6-1.2-2-13.7-22.8-4.9-22.5-.5-22 4.8-15.2 7.6-5 5.8L24 70.8l.7 5.8z" class="st4"/><path d="M108.4 56.9c4.6-2.2 9.7 1.4 9.6-6.1s-4.2-32.2-52.7-29.7-51 34.6-51 37.5-.1 12.8 8.4 16.5" class="st18"/><path d="M19 209.9s-9.6-21.6-9.2-47.3c.4-25.6-1.6-80.6 8.5-91.7m96.5-14.8s2.4 4.7 1.7 9.5M38.7 93.4s12.5-11.9 11.8-21.3" class="st18"/><path d="M33.7 76s18.2.4 34-14.6" class="st18"/><path d="M66.8 62.2c25.6 4.4 33.5-13.9 33.5-13.9" class="st18"/><path d="M108.4 50.3s-4.2 9.4-16.1 7.2" class="st18"/><path d="M117.2 130.7s1 46.3-.4 48.3" class="st12"/><path d="M36.5 261.3s3.7-12.4 16.4-15.1" class="st10"/><path d="M51.2 183.8s-8.9 37.8-7.3 41.9c1.5 4.1 12.1 20.4 12.1 20.4s-.4 7.4-1.4 7.6-14.3 12.3-15.1 12.5c-.9.2-10.3-11.7-10.3-11.7" class="st10"/><path d="m46.1 250.9 8.9 3.6s2.6-1.4 2.4 0-5.6 8.5-5.6 8.5l-7.2 5.1s-6-7.1-6.1-8.6c-.2-1.5 3-7.4 7.6-8.6" style="fill:#d9a97b"/><path d="M41.7 269.6s12.3-4.8 19.1-18.7m-24.3-27.4s6.4 0 7.4 2.2" class="st10"/><path d="M105 179s5.3 13.9 5.5 36.5c.3 22.6 3.4 63.6 3.4 63.6" style="fill:none;stroke:#020202;stroke-width:2;stroke-miterlimit:10"/><path d="M211.9 150.3s7.8-3.4 11.7-3.4h22.1s2.9 4.9-1.3 5.8-9.6 1.4-9.6 1.4 3.6 3.6 1 4.6c0 0 .3 5.8-1 5.6-1.4-.2-1.7 4.4-3.2 4.4h-4.9s-12.5-3-14.8-4.4-2-13.2 0-14z" style="fill:#d9a97b;stroke:#000;stroke-miterlimit:10"/><path d="m109 157.8 102.4-10.9s-4 13.5 5 22.2L109 182.3z" class="st6"/><path d="M199.8 148.7s-3.2 14.5 3 22.5" class="st17"/><path d="m98 160.9 3.6-.3 2.1-.2 2.6-1.9.5-.3s2.3.4 3 .4c.6 0 2.3-.1 2.3-.1l1.9 22.2-11.4 1.7z" class="st8"/><path d="M100.8 179s2.7 2.1 8.2 3.4m-3.6-7.1s.4 2.6 2.9 6.3" style="stroke-miterlimit:10;stroke-width:2;fill:#d37c45;stroke:#020202;stroke-linecap:round;stroke-linejoin:round"/></svg>